<svg fill="none" xmlns="http://www.w3.org/2000/svg"><path d="M9.758 6.054 C 9.416 6.147,9.160 6.395,9.061 6.729 C 8.985 6.987,8.985 7.053,9.063 7.323 C 9.125 7.532,9.207 7.620,11.353 9.770 L 13.578 12.000 11.354 14.230 C 9.343 16.247,9.124 16.479,9.065 16.657 C 8.936 17.047,9.021 17.423,9.300 17.702 C 9.602 18.005,10.053 18.078,10.444 17.887 C 10.570 17.826,11.363 17.058,13.245 15.171 C 15.629 12.781,15.876 12.522,15.935 12.343 C 16.017 12.094,16.017 11.906,15.935 11.657 C 15.876 11.478,15.631 11.221,13.268 8.853 C 11.507 7.087,10.608 6.214,10.484 6.148 C 10.252 6.024,9.992 5.990,9.758 6.054 " fill="currentColor" stroke="none" fill-rule="evenodd"></path></svg>